<?xml version="1.0" standalone="no"?>
<!DOCTYPE svg PUBLIC "-//W3C//DTD SVG 20010904//EN"
 "http://www.w3.org/TR/2001/REC-SVG-20010904/DTD/svg10.dtd">
<svg version="1.0" xmlns="http://www.w3.org/2000/svg"
 width="366.000000pt" height="366.000000pt" viewBox="0 0 366.000000 366.000000"
 preserveAspectRatio="xMidYMid meet">
<metadata>
Created by potrace 1.14, written by Peter Selinger 2001-2017
</metadata>
<g transform="translate(0.000000,366.000000) scale(0.100000,-0.100000)"
fill="#000000" stroke="none">
<path d="M2436 2302 c-2 -2 -29 -5 -60 -7 -30 -2 -86 -13 -123 -26 -37 -12
-68 -21 -68 -19 0 8 -52 -37 -110 -95 -89 -87 -118 -164 -119 -305 0 -130 6
-157 52 -245 17 -32 24 -41 75 -94 34 -35 170 -105 190 -98 7 2 20 0 29 -5 30
-15 196 -11 276 7 32 7 33 8 28 45 -7 50 -39 117 -72 154 -39 41 -89 60 -159
57 -56 -2 -61 0 -92 34 -34 37 -63 86 -63 105 0 6 11 26 24 43 22 31 50 97 40
97 -3 0 0 6 6 13 41 48 61 67 102 100 50 40 52 48 16 100 -23 32 -11 36 22 7
38 -33 47 -26 40 35 -4 39 -2 56 6 59 7 3 41 -26 74 -65 58 -65 89 -87 77 -55
-3 8 -3 17 1 20 3 4 7 12 8 19 1 7 4 28 8 48 6 39 6 39 -64 56 -41 10 -139 20
-144 15z"/>
<path d="M115 2282 c-37 -8 -44 -32 -45 -155 0 -109 1 -117 18 -108 9 5 20 9
25 10 4 1 8 1 10 2 11 3 37 10 62 15 l30 7 -31 -29 c-34 -32 -79 -94 -68 -94
3 0 2 -6 -3 -12 -11 -14 -11 -52 0 -84 19 -55 126 -66 174 -18 14 14 34 59 40
89 2 11 6 27 10 35 6 15 8 26 11 63 1 11 7 15 14 11 7 -5 8 -3 4 5 -14 22 24
51 65 51 21 0 41 -5 44 -10 4 -6 9 -8 13 -6 13 8 38 -18 52 -54 18 -47 82
-106 128 -117 35 -8 37 -11 37 -48 0 -50 -46 -132 -67 -119 -4 3 -8 0 -8 -6 0
-7 -7 -10 -15 -7 -8 4 -17 2 -19 -2 -3 -5 -41 -9 -83 -10 -43 -1 -105 -8 -138
-16 -33 -7 -64 -11 -69 -8 -5 4 -6 2 -3 -4 6 -9 -60 -39 -76 -35 -5 1 -6 -2
-2 -8 3 -5 2 -10 -3 -10 -5 0 -22 -13 -38 -30 -16 -16 -35 -30 -42 -30 -7 0
-10 -4 -7 -10 3 -5 1 -10 -4 -10 -6 0 -11 -7 -11 -15 0 -8 -4 -15 -9 -15 -8 0
-24 -37 -22 -52 1 -5 -3 -8 -7 -8 -17 0 -5 -43 14 -50 22 -7 408 -5 439 3 291
74 433 377 305 650 -7 15 -17 27 -22 27 -4 0 -8 6 -8 13 0 17 -53 71 -113 115
-54 40 -130 73 -182 79 -44 6 -377 9 -400 5z"/>
<path d="M1345 2281 c-3 -2 -15 -6 -27 -7 -46 -7 -88 -21 -147 -52 -43 -22
-142 -119 -161 -157 -8 -16 -18 -32 -21 -35 -3 -3 -14 -30 -24 -60 -20 -61
-24 -235 -6 -253 6 -6 11 -19 11 -29 0 -17 41 -98 64 -125 136 -167 362 -223
566 -141 30 12 61 28 68 35 7 7 16 13 20 13 12 0 92 79 92 90 0 5 4 10 9 10 9
0 38 56 71 135 16 39 21 157 9 220 -5 28 -22 77 -39 110 -29 59 -109 155 -130
155 -5 0 -10 5 -10 10 0 6 -7 10 -15 10 -8 0 -15 5 -15 10 0 6 -4 10 -9 10 -5
0 -26 8 -47 17 -22 9 -41 17 -44 18 -67 16 -205 26 -215 16z m155 -233 c42
-18 85 -59 102 -99 7 -16 15 -29 18 -29 7 0 9 -27 10 -95 0 -63 -39 -146 -83
-178 -84 -61 -178 -60 -274 3 -13 8 -23 20 -23 27 0 7 -4 13 -9 13 -19 0 -48
103 -46 160 7 160 162 260 305 198z"/>
<path d="M3010 2235 c-30 -8 -57 -13 -60 -12 -3 0 -22 -7 -44 -16 -21 -9 -42
-17 -46 -17 -11 0 -20 -27 -12 -35 4 -4 7 -10 8 -13 4 -33 18 -83 25 -87 4 -3
6 -12 3 -20 -5 -13 11 -15 31 -4 6 4 24 10 40 14 17 5 33 9 38 10 4 2 8 4 10
5 13 14 144 17 181 5 49 -17 66 -34 72 -72 5 -30 4 -31 -41 -35 -25 -2 -45 1
-45 6 0 4 -6 4 -12 -2 -7 -5 -31 -12 -53 -15 -101 -12 -208 -63 -258 -121 -83
-96 -77 -278 11 -349 12 -10 28 -24 35 -31 40 -40 191 -54 272 -25 40 14 51
21 82 49 21 19 43 21 43 4 0 -24 1 -29 12 -41 5 -7 23 -11 39 -9 16 2 32 -1
35 -6 3 -5 11 -5 17 -1 7 5 26 7 42 6 29 -3 41 -3 77 -2 9 0 15 7 13 17 -2 9
-4 17 -6 17 -1 0 -3 110 -5 245 -3 274 -6 316 -23 348 -6 12 -9 22 -6 22 13 0
-58 91 -90 116 -76 58 -251 80 -385 49z m244 -431 c24 -9 22 -119 -3 -160 -58
-95 -223 -73 -216 29 4 44 2 41 28 69 30 34 61 49 121 58 28 4 52 8 53 9 1 0
8 -2 17 -5z"/>
<path d="M470 1950 c0 -5 6 -10 14 -10 8 0 18 5 21 10 3 6 -3 10 -14 10 -12 0
-21 -4 -21 -10z"/>
</g>
</svg>
